<mxfile host="app.diagrams.net" modified="2024-06-12T07:30:28.513Z" agent="Mozilla/5.0 (Windows NT 10.0; Win64; x64) AppleWebKit/537.36 (KHTML, like Gecko) Chrome/124.0.0.0 Safari/537.36" etag="0mRyahHcydfG-eg_rZql" version="24.5.2" type="github">
  <diagram name="Page-1" id="YPxaZICVhEco1zUHnh6d">
    <mxGraphModel dx="1032" dy="530" grid="1" gridSize="10" guides="1" tooltips="1" connect="1" arrows="1" fold="1" page="1" pageScale="1" pageWidth="827" pageHeight="1169" math="0" shadow="0">
      <root>
        <mxCell id="0" />
        <mxCell id="1" parent="0" />
        <mxCell id="FYcy1s9Q1wEInNr1CtbZ-1" value="Screen" style="swimlane;fontStyle=1;align=center;verticalAlign=top;childLayout=stackLayout;horizontal=1;startSize=26;horizontalStack=0;resizeParent=1;resizeParentMax=0;resizeLast=0;collapsible=1;marginBottom=0;whiteSpace=wrap;html=1;" parent="1" vertex="1">
          <mxGeometry x="140" y="140" width="160" height="154" as="geometry" />
        </mxCell>
        <mxCell id="FYcy1s9Q1wEInNr1CtbZ-2" value="- id: Integer&lt;div&gt;- name: String&lt;/div&gt;&lt;div&gt;- seats: Seat[]&lt;/div&gt;&lt;div&gt;- theatre: Theatre&lt;/div&gt;&lt;div&gt;- shows: Show[]&lt;/div&gt;&lt;div&gt;- features: String[]&lt;br&gt;&lt;/div&gt;" style="text;strokeColor=none;fillColor=none;align=left;verticalAlign=top;spacingLeft=4;spacingRight=4;overflow=hidden;rotatable=0;points=[[0,0.5],[1,0.5]];portConstraint=eastwest;whiteSpace=wrap;html=1;" parent="FYcy1s9Q1wEInNr1CtbZ-1" vertex="1">
          <mxGeometry y="26" width="160" height="94" as="geometry" />
        </mxCell>
        <mxCell id="FYcy1s9Q1wEInNr1CtbZ-3" value="" style="line;strokeWidth=1;fillColor=none;align=left;verticalAlign=middle;spacingTop=-1;spacingLeft=3;spacingRight=3;rotatable=0;labelPosition=right;points=[];portConstraint=eastwest;strokeColor=inherit;" parent="FYcy1s9Q1wEInNr1CtbZ-1" vertex="1">
          <mxGeometry y="120" width="160" height="8" as="geometry" />
        </mxCell>
        <mxCell id="FYcy1s9Q1wEInNr1CtbZ-4" value="&amp;nbsp;" style="text;strokeColor=none;fillColor=none;align=left;verticalAlign=top;spacingLeft=4;spacingRight=4;overflow=hidden;rotatable=0;points=[[0,0.5],[1,0.5]];portConstraint=eastwest;whiteSpace=wrap;html=1;" parent="FYcy1s9Q1wEInNr1CtbZ-1" vertex="1">
          <mxGeometry y="128" width="160" height="26" as="geometry" />
        </mxCell>
        <mxCell id="ZV7shRf-ksZKW6ysH2i3-1" style="edgeStyle=orthogonalEdgeStyle;rounded=0;orthogonalLoop=1;jettySize=auto;html=1;entryX=1;entryY=0.5;entryDx=0;entryDy=0;endArrow=diamond;endFill=0;endSize=10;startSize=10;" edge="1" parent="1" source="FYcy1s9Q1wEInNr1CtbZ-5" target="FYcy1s9Q1wEInNr1CtbZ-2">
          <mxGeometry relative="1" as="geometry" />
        </mxCell>
        <mxCell id="FYcy1s9Q1wEInNr1CtbZ-5" value="Theatre" style="swimlane;fontStyle=1;align=center;verticalAlign=top;childLayout=stackLayout;horizontal=1;startSize=26;horizontalStack=0;resizeParent=1;resizeParentMax=0;resizeLast=0;collapsible=1;marginBottom=0;whiteSpace=wrap;html=1;" parent="1" vertex="1">
          <mxGeometry x="400" y="156" width="160" height="114" as="geometry" />
        </mxCell>
        <mxCell id="FYcy1s9Q1wEInNr1CtbZ-6" value="- id: Integer&lt;div&gt;- shows: Show[]&lt;/div&gt;&lt;div&gt;- city: City&lt;/div&gt;" style="text;strokeColor=none;fillColor=none;align=left;verticalAlign=top;spacingLeft=4;spacingRight=4;overflow=hidden;rotatable=0;points=[[0,0.5],[1,0.5]];portConstraint=eastwest;whiteSpace=wrap;html=1;" parent="FYcy1s9Q1wEInNr1CtbZ-5" vertex="1">
          <mxGeometry y="26" width="160" height="54" as="geometry" />
        </mxCell>
        <mxCell id="FYcy1s9Q1wEInNr1CtbZ-7" value="" style="line;strokeWidth=1;fillColor=none;align=left;verticalAlign=middle;spacingTop=-1;spacingLeft=3;spacingRight=3;rotatable=0;labelPosition=right;points=[];portConstraint=eastwest;strokeColor=inherit;" parent="FYcy1s9Q1wEInNr1CtbZ-5" vertex="1">
          <mxGeometry y="80" width="160" height="8" as="geometry" />
        </mxCell>
        <mxCell id="FYcy1s9Q1wEInNr1CtbZ-8" value="&amp;nbsp;" style="text;strokeColor=none;fillColor=none;align=left;verticalAlign=top;spacingLeft=4;spacingRight=4;overflow=hidden;rotatable=0;points=[[0,0.5],[1,0.5]];portConstraint=eastwest;whiteSpace=wrap;html=1;" parent="FYcy1s9Q1wEInNr1CtbZ-5" vertex="1">
          <mxGeometry y="88" width="160" height="26" as="geometry" />
        </mxCell>
        <mxCell id="FYcy1s9Q1wEInNr1CtbZ-9" value="&amp;lt;&amp;lt;enumeration&amp;gt;&amp;gt;&lt;br&gt;&lt;b&gt;SeatType&lt;/b&gt;" style="swimlane;fontStyle=0;align=center;verticalAlign=top;childLayout=stackLayout;horizontal=1;startSize=40;horizontalStack=0;resizeParent=1;resizeParentMax=0;resizeLast=0;collapsible=0;marginBottom=0;html=1;whiteSpace=wrap;" parent="1" vertex="1">
          <mxGeometry x="90" y="20" width="140" height="80" as="geometry" />
        </mxCell>
        <mxCell id="FYcy1s9Q1wEInNr1CtbZ-10" value="PLATINUM, GOLD, SILVER" style="text;html=1;strokeColor=none;fillColor=none;align=left;verticalAlign=middle;spacingLeft=4;spacingRight=4;overflow=hidden;rotatable=0;points=[[0,0.5],[1,0.5]];portConstraint=eastwest;whiteSpace=wrap;" parent="FYcy1s9Q1wEInNr1CtbZ-9" vertex="1">
          <mxGeometry y="40" width="140" height="40" as="geometry" />
        </mxCell>
        <mxCell id="FYcy1s9Q1wEInNr1CtbZ-11" value="Show" style="swimlane;fontStyle=1;align=center;verticalAlign=top;childLayout=stackLayout;horizontal=1;startSize=26;horizontalStack=0;resizeParent=1;resizeParentMax=0;resizeLast=0;collapsible=1;marginBottom=0;whiteSpace=wrap;html=1;" parent="1" vertex="1">
          <mxGeometry x="440" y="340" width="160" height="114" as="geometry" />
        </mxCell>
        <mxCell id="FYcy1s9Q1wEInNr1CtbZ-12" value="- id: Integer&lt;div&gt;- movie: Movie&lt;/div&gt;&lt;div&gt;- features: String[]&lt;br&gt;&lt;/div&gt;" style="text;strokeColor=none;fillColor=none;align=left;verticalAlign=top;spacingLeft=4;spacingRight=4;overflow=hidden;rotatable=0;points=[[0,0.5],[1,0.5]];portConstraint=eastwest;whiteSpace=wrap;html=1;" parent="FYcy1s9Q1wEInNr1CtbZ-11" vertex="1">
          <mxGeometry y="26" width="160" height="54" as="geometry" />
        </mxCell>
        <mxCell id="FYcy1s9Q1wEInNr1CtbZ-13" value="" style="line;strokeWidth=1;fillColor=none;align=left;verticalAlign=middle;spacingTop=-1;spacingLeft=3;spacingRight=3;rotatable=0;labelPosition=right;points=[];portConstraint=eastwest;strokeColor=inherit;" parent="FYcy1s9Q1wEInNr1CtbZ-11" vertex="1">
          <mxGeometry y="80" width="160" height="8" as="geometry" />
        </mxCell>
        <mxCell id="FYcy1s9Q1wEInNr1CtbZ-14" value="&amp;nbsp;" style="text;strokeColor=none;fillColor=none;align=left;verticalAlign=top;spacingLeft=4;spacingRight=4;overflow=hidden;rotatable=0;points=[[0,0.5],[1,0.5]];portConstraint=eastwest;whiteSpace=wrap;html=1;" parent="FYcy1s9Q1wEInNr1CtbZ-11" vertex="1">
          <mxGeometry y="88" width="160" height="26" as="geometry" />
        </mxCell>
        <mxCell id="FYcy1s9Q1wEInNr1CtbZ-15" value="Movie" style="swimlane;fontStyle=1;align=center;verticalAlign=top;childLayout=stackLayout;horizontal=1;startSize=26;horizontalStack=0;resizeParent=1;resizeParentMax=0;resizeLast=0;collapsible=1;marginBottom=0;whiteSpace=wrap;html=1;" parent="1" vertex="1">
          <mxGeometry x="150" y="340" width="160" height="144" as="geometry" />
        </mxCell>
        <mxCell id="FYcy1s9Q1wEInNr1CtbZ-16" value="&lt;div&gt;- id: Integer&lt;/div&gt;- name: String&lt;div&gt;- duration: Long&lt;/div&gt;&lt;div&gt;- features: String[]&lt;/div&gt;" style="text;strokeColor=none;fillColor=none;align=left;verticalAlign=top;spacingLeft=4;spacingRight=4;overflow=hidden;rotatable=0;points=[[0,0.5],[1,0.5]];portConstraint=eastwest;whiteSpace=wrap;html=1;" parent="FYcy1s9Q1wEInNr1CtbZ-15" vertex="1">
          <mxGeometry y="26" width="160" height="84" as="geometry" />
        </mxCell>
        <mxCell id="FYcy1s9Q1wEInNr1CtbZ-17" value="" style="line;strokeWidth=1;fillColor=none;align=left;verticalAlign=middle;spacingTop=-1;spacingLeft=3;spacingRight=3;rotatable=0;labelPosition=right;points=[];portConstraint=eastwest;strokeColor=inherit;" parent="FYcy1s9Q1wEInNr1CtbZ-15" vertex="1">
          <mxGeometry y="110" width="160" height="8" as="geometry" />
        </mxCell>
        <mxCell id="FYcy1s9Q1wEInNr1CtbZ-18" value="&amp;nbsp;" style="text;strokeColor=none;fillColor=none;align=left;verticalAlign=top;spacingLeft=4;spacingRight=4;overflow=hidden;rotatable=0;points=[[0,0.5],[1,0.5]];portConstraint=eastwest;whiteSpace=wrap;html=1;" parent="FYcy1s9Q1wEInNr1CtbZ-15" vertex="1">
          <mxGeometry y="118" width="160" height="26" as="geometry" />
        </mxCell>
        <mxCell id="FYcy1s9Q1wEInNr1CtbZ-19" style="edgeStyle=orthogonalEdgeStyle;rounded=0;orthogonalLoop=1;jettySize=auto;html=1;entryX=1.01;entryY=0.128;entryDx=0;entryDy=0;entryPerimeter=0;endArrow=none;endFill=0;endSize=10;startSize=10;startArrow=diamond;startFill=0;" parent="1" source="FYcy1s9Q1wEInNr1CtbZ-11" target="FYcy1s9Q1wEInNr1CtbZ-15" edge="1">
          <mxGeometry relative="1" as="geometry" />
        </mxCell>
        <mxCell id="ZV7shRf-ksZKW6ysH2i3-3" style="edgeStyle=orthogonalEdgeStyle;rounded=0;orthogonalLoop=1;jettySize=auto;html=1;exitX=1;exitY=0.5;exitDx=0;exitDy=0;entryX=1;entryY=0.175;entryDx=0;entryDy=0;entryPerimeter=0;startArrow=diamond;startFill=0;endArrow=none;endFill=0;endSize=10;startSize=10;" edge="1" parent="1" source="FYcy1s9Q1wEInNr1CtbZ-6" target="FYcy1s9Q1wEInNr1CtbZ-11">
          <mxGeometry relative="1" as="geometry" />
        </mxCell>
        <mxCell id="ZV7shRf-ksZKW6ysH2i3-4" value="&amp;lt;&amp;lt;enumeration&amp;gt;&amp;gt;&lt;br&gt;&lt;b&gt;PaymentStatus&lt;/b&gt;" style="swimlane;fontStyle=0;align=center;verticalAlign=top;childLayout=stackLayout;horizontal=1;startSize=40;horizontalStack=0;resizeParent=1;resizeParentMax=0;resizeLast=0;collapsible=0;marginBottom=0;html=1;whiteSpace=wrap;" vertex="1" parent="1">
          <mxGeometry x="300" y="20" width="140" height="80" as="geometry" />
        </mxCell>
        <mxCell id="ZV7shRf-ksZKW6ysH2i3-5" value="SUCCESS, FAILED, PENDING" style="text;html=1;strokeColor=none;fillColor=none;align=left;verticalAlign=middle;spacingLeft=4;spacingRight=4;overflow=hidden;rotatable=0;points=[[0,0.5],[1,0.5]];portConstraint=eastwest;whiteSpace=wrap;" vertex="1" parent="ZV7shRf-ksZKW6ysH2i3-4">
          <mxGeometry y="40" width="140" height="40" as="geometry" />
        </mxCell>
        <mxCell id="ZV7shRf-ksZKW6ysH2i3-6" value="City" style="swimlane;fontStyle=1;align=center;verticalAlign=top;childLayout=stackLayout;horizontal=1;startSize=26;horizontalStack=0;resizeParent=1;resizeParentMax=0;resizeLast=0;collapsible=1;marginBottom=0;whiteSpace=wrap;html=1;" vertex="1" parent="1">
          <mxGeometry x="670" y="140" width="160" height="124" as="geometry" />
        </mxCell>
        <mxCell id="ZV7shRf-ksZKW6ysH2i3-7" value="- id: Integer&lt;div&gt;- name: String&lt;/div&gt;&lt;div&gt;- movies: Movie[]&lt;/div&gt;" style="text;strokeColor=none;fillColor=none;align=left;verticalAlign=top;spacingLeft=4;spacingRight=4;overflow=hidden;rotatable=0;points=[[0,0.5],[1,0.5]];portConstraint=eastwest;whiteSpace=wrap;html=1;" vertex="1" parent="ZV7shRf-ksZKW6ysH2i3-6">
          <mxGeometry y="26" width="160" height="64" as="geometry" />
        </mxCell>
        <mxCell id="ZV7shRf-ksZKW6ysH2i3-8" value="" style="line;strokeWidth=1;fillColor=none;align=left;verticalAlign=middle;spacingTop=-1;spacingLeft=3;spacingRight=3;rotatable=0;labelPosition=right;points=[];portConstraint=eastwest;strokeColor=inherit;" vertex="1" parent="ZV7shRf-ksZKW6ysH2i3-6">
          <mxGeometry y="90" width="160" height="8" as="geometry" />
        </mxCell>
        <mxCell id="ZV7shRf-ksZKW6ysH2i3-9" value="&amp;nbsp;" style="text;strokeColor=none;fillColor=none;align=left;verticalAlign=top;spacingLeft=4;spacingRight=4;overflow=hidden;rotatable=0;points=[[0,0.5],[1,0.5]];portConstraint=eastwest;whiteSpace=wrap;html=1;" vertex="1" parent="ZV7shRf-ksZKW6ysH2i3-6">
          <mxGeometry y="98" width="160" height="26" as="geometry" />
        </mxCell>
        <mxCell id="ZV7shRf-ksZKW6ysH2i3-10" style="edgeStyle=orthogonalEdgeStyle;rounded=0;orthogonalLoop=1;jettySize=auto;html=1;entryX=-0.011;entryY=0.083;entryDx=0;entryDy=0;entryPerimeter=0;startArrow=diamond;startFill=0;endArrow=none;endFill=0;endSize=10;startSize=10;" edge="1" parent="1" source="FYcy1s9Q1wEInNr1CtbZ-6" target="ZV7shRf-ksZKW6ysH2i3-6">
          <mxGeometry relative="1" as="geometry" />
        </mxCell>
        <mxCell id="ZV7shRf-ksZKW6ysH2i3-11" value="Payment" style="swimlane;fontStyle=1;align=center;verticalAlign=top;childLayout=stackLayout;horizontal=1;startSize=26;horizontalStack=0;resizeParent=1;resizeParentMax=0;resizeLast=0;collapsible=1;marginBottom=0;whiteSpace=wrap;html=1;" vertex="1" parent="1">
          <mxGeometry x="140" y="520" width="200" height="144" as="geometry" />
        </mxCell>
        <mxCell id="ZV7shRf-ksZKW6ysH2i3-12" value="&lt;div&gt;- id: Integer&lt;/div&gt;- amount: Long&lt;div&gt;- date: DateTime&lt;/div&gt;&lt;div&gt;- paymentStatus: PaymentStatus&lt;/div&gt;&lt;div&gt;- transaction: Transaction&lt;/div&gt;" style="text;strokeColor=none;fillColor=none;align=left;verticalAlign=top;spacingLeft=4;spacingRight=4;overflow=hidden;rotatable=0;points=[[0,0.5],[1,0.5]];portConstraint=eastwest;whiteSpace=wrap;html=1;" vertex="1" parent="ZV7shRf-ksZKW6ysH2i3-11">
          <mxGeometry y="26" width="200" height="84" as="geometry" />
        </mxCell>
        <mxCell id="ZV7shRf-ksZKW6ysH2i3-13" value="" style="line;strokeWidth=1;fillColor=none;align=left;verticalAlign=middle;spacingTop=-1;spacingLeft=3;spacingRight=3;rotatable=0;labelPosition=right;points=[];portConstraint=eastwest;strokeColor=inherit;" vertex="1" parent="ZV7shRf-ksZKW6ysH2i3-11">
          <mxGeometry y="110" width="200" height="8" as="geometry" />
        </mxCell>
        <mxCell id="ZV7shRf-ksZKW6ysH2i3-14" value="&amp;nbsp;" style="text;strokeColor=none;fillColor=none;align=left;verticalAlign=top;spacingLeft=4;spacingRight=4;overflow=hidden;rotatable=0;points=[[0,0.5],[1,0.5]];portConstraint=eastwest;whiteSpace=wrap;html=1;" vertex="1" parent="ZV7shRf-ksZKW6ysH2i3-11">
          <mxGeometry y="118" width="200" height="26" as="geometry" />
        </mxCell>
        <mxCell id="ZV7shRf-ksZKW6ysH2i3-15" value="Booking" style="swimlane;fontStyle=1;align=center;verticalAlign=top;childLayout=stackLayout;horizontal=1;startSize=26;horizontalStack=0;resizeParent=1;resizeParentMax=0;resizeLast=0;collapsible=1;marginBottom=0;whiteSpace=wrap;html=1;" vertex="1" parent="1">
          <mxGeometry x="600" y="510" width="190" height="164" as="geometry" />
        </mxCell>
        <mxCell id="ZV7shRf-ksZKW6ysH2i3-16" value="&lt;div&gt;- id: Integer&lt;/div&gt;- totalAmount: Long&lt;div&gt;- date: DateTime&lt;/div&gt;&lt;div&gt;- payments: Payment[]&lt;/div&gt;&lt;div&gt;- bookingStatus: BookingStatus&lt;/div&gt;&lt;div&gt;- show: Show&lt;/div&gt;&lt;div&gt;- user: User&lt;/div&gt;" style="text;strokeColor=none;fillColor=none;align=left;verticalAlign=top;spacingLeft=4;spacingRight=4;overflow=hidden;rotatable=0;points=[[0,0.5],[1,0.5]];portConstraint=eastwest;whiteSpace=wrap;html=1;" vertex="1" parent="ZV7shRf-ksZKW6ysH2i3-15">
          <mxGeometry y="26" width="190" height="104" as="geometry" />
        </mxCell>
        <mxCell id="ZV7shRf-ksZKW6ysH2i3-17" value="" style="line;strokeWidth=1;fillColor=none;align=left;verticalAlign=middle;spacingTop=-1;spacingLeft=3;spacingRight=3;rotatable=0;labelPosition=right;points=[];portConstraint=eastwest;strokeColor=inherit;" vertex="1" parent="ZV7shRf-ksZKW6ysH2i3-15">
          <mxGeometry y="130" width="190" height="8" as="geometry" />
        </mxCell>
        <mxCell id="ZV7shRf-ksZKW6ysH2i3-18" value="&amp;nbsp;" style="text;strokeColor=none;fillColor=none;align=left;verticalAlign=top;spacingLeft=4;spacingRight=4;overflow=hidden;rotatable=0;points=[[0,0.5],[1,0.5]];portConstraint=eastwest;whiteSpace=wrap;html=1;" vertex="1" parent="ZV7shRf-ksZKW6ysH2i3-15">
          <mxGeometry y="138" width="190" height="26" as="geometry" />
        </mxCell>
        <mxCell id="ZV7shRf-ksZKW6ysH2i3-19" value="&amp;lt;&amp;lt;enumeration&amp;gt;&amp;gt;&lt;br&gt;&lt;b&gt;BookingStatus&lt;/b&gt;" style="swimlane;fontStyle=0;align=center;verticalAlign=top;childLayout=stackLayout;horizontal=1;startSize=40;horizontalStack=0;resizeParent=1;resizeParentMax=0;resizeLast=0;collapsible=0;marginBottom=0;html=1;whiteSpace=wrap;" vertex="1" parent="1">
          <mxGeometry x="510" y="20" width="140" height="80" as="geometry" />
        </mxCell>
        <mxCell id="ZV7shRf-ksZKW6ysH2i3-20" value="SUCCESS, FAILED, PENDING" style="text;html=1;strokeColor=none;fillColor=none;align=left;verticalAlign=middle;spacingLeft=4;spacingRight=4;overflow=hidden;rotatable=0;points=[[0,0.5],[1,0.5]];portConstraint=eastwest;whiteSpace=wrap;" vertex="1" parent="ZV7shRf-ksZKW6ysH2i3-19">
          <mxGeometry y="40" width="140" height="40" as="geometry" />
        </mxCell>
        <mxCell id="ZV7shRf-ksZKW6ysH2i3-22" style="edgeStyle=orthogonalEdgeStyle;rounded=0;orthogonalLoop=1;jettySize=auto;html=1;entryX=1.002;entryY=0.11;entryDx=0;entryDy=0;entryPerimeter=0;" edge="1" parent="1" source="FYcy1s9Q1wEInNr1CtbZ-12" target="ZV7shRf-ksZKW6ysH2i3-15">
          <mxGeometry relative="1" as="geometry" />
        </mxCell>
        <mxCell id="ZV7shRf-ksZKW6ysH2i3-23" style="edgeStyle=orthogonalEdgeStyle;rounded=0;orthogonalLoop=1;jettySize=auto;html=1;entryX=1.013;entryY=-0.076;entryDx=0;entryDy=0;entryPerimeter=0;startArrow=diamond;startFill=1;endArrow=none;endFill=0;endSize=10;startSize=10;" edge="1" parent="1" source="ZV7shRf-ksZKW6ysH2i3-16" target="ZV7shRf-ksZKW6ysH2i3-12">
          <mxGeometry relative="1" as="geometry" />
        </mxCell>
        <mxCell id="ZV7shRf-ksZKW6ysH2i3-24" value="ShowSeat" style="swimlane;fontStyle=1;align=center;verticalAlign=top;childLayout=stackLayout;horizontal=1;startSize=26;horizontalStack=0;resizeParent=1;resizeParentMax=0;resizeLast=0;collapsible=1;marginBottom=0;whiteSpace=wrap;html=1;" vertex="1" parent="1">
          <mxGeometry x="390" y="680" width="200" height="114" as="geometry" />
        </mxCell>
        <mxCell id="ZV7shRf-ksZKW6ysH2i3-25" value="- id: Integer&lt;div&gt;- show: Show&lt;/div&gt;&lt;div&gt;- seat: Seat&lt;/div&gt;&lt;div&gt;&lt;br&gt;&lt;/div&gt;" style="text;strokeColor=none;fillColor=none;align=left;verticalAlign=top;spacingLeft=4;spacingRight=4;overflow=hidden;rotatable=0;points=[[0,0.5],[1,0.5]];portConstraint=eastwest;whiteSpace=wrap;html=1;" vertex="1" parent="ZV7shRf-ksZKW6ysH2i3-24">
          <mxGeometry y="26" width="200" height="54" as="geometry" />
        </mxCell>
        <mxCell id="ZV7shRf-ksZKW6ysH2i3-26" value="" style="line;strokeWidth=1;fillColor=none;align=left;verticalAlign=middle;spacingTop=-1;spacingLeft=3;spacingRight=3;rotatable=0;labelPosition=right;points=[];portConstraint=eastwest;strokeColor=inherit;" vertex="1" parent="ZV7shRf-ksZKW6ysH2i3-24">
          <mxGeometry y="80" width="200" height="8" as="geometry" />
        </mxCell>
        <mxCell id="ZV7shRf-ksZKW6ysH2i3-27" value="+ calculatePrice(): PricingStrategy" style="text;strokeColor=none;fillColor=none;align=left;verticalAlign=top;spacingLeft=4;spacingRight=4;overflow=hidden;rotatable=0;points=[[0,0.5],[1,0.5]];portConstraint=eastwest;whiteSpace=wrap;html=1;" vertex="1" parent="ZV7shRf-ksZKW6ysH2i3-24">
          <mxGeometry y="88" width="200" height="26" as="geometry" />
        </mxCell>
        <mxCell id="ZV7shRf-ksZKW6ysH2i3-28" value="Seat" style="swimlane;fontStyle=1;align=center;verticalAlign=top;childLayout=stackLayout;horizontal=1;startSize=26;horizontalStack=0;resizeParent=1;resizeParentMax=0;resizeLast=0;collapsible=1;marginBottom=0;whiteSpace=wrap;html=1;" vertex="1" parent="1">
          <mxGeometry x="130" y="690" width="160" height="114" as="geometry" />
        </mxCell>
        <mxCell id="ZV7shRf-ksZKW6ysH2i3-29" value="- id: Integer&lt;div&gt;- name: String&lt;/div&gt;&lt;div&gt;- seatType: SeatType&lt;/div&gt;" style="text;strokeColor=none;fillColor=none;align=left;verticalAlign=top;spacingLeft=4;spacingRight=4;overflow=hidden;rotatable=0;points=[[0,0.5],[1,0.5]];portConstraint=eastwest;whiteSpace=wrap;html=1;" vertex="1" parent="ZV7shRf-ksZKW6ysH2i3-28">
          <mxGeometry y="26" width="160" height="54" as="geometry" />
        </mxCell>
        <mxCell id="ZV7shRf-ksZKW6ysH2i3-30" value="" style="line;strokeWidth=1;fillColor=none;align=left;verticalAlign=middle;spacingTop=-1;spacingLeft=3;spacingRight=3;rotatable=0;labelPosition=right;points=[];portConstraint=eastwest;strokeColor=inherit;" vertex="1" parent="ZV7shRf-ksZKW6ysH2i3-28">
          <mxGeometry y="80" width="160" height="8" as="geometry" />
        </mxCell>
        <mxCell id="ZV7shRf-ksZKW6ysH2i3-31" value="&amp;nbsp;" style="text;strokeColor=none;fillColor=none;align=left;verticalAlign=top;spacingLeft=4;spacingRight=4;overflow=hidden;rotatable=0;points=[[0,0.5],[1,0.5]];portConstraint=eastwest;whiteSpace=wrap;html=1;" vertex="1" parent="ZV7shRf-ksZKW6ysH2i3-28">
          <mxGeometry y="88" width="160" height="26" as="geometry" />
        </mxCell>
        <mxCell id="ZV7shRf-ksZKW6ysH2i3-32" style="edgeStyle=orthogonalEdgeStyle;rounded=0;orthogonalLoop=1;jettySize=auto;html=1;entryX=0.003;entryY=0.091;entryDx=0;entryDy=0;entryPerimeter=0;startArrow=diamond;startFill=0;endArrow=none;endFill=0;endSize=10;startSize=10;" edge="1" parent="1" source="FYcy1s9Q1wEInNr1CtbZ-2" target="ZV7shRf-ksZKW6ysH2i3-28">
          <mxGeometry relative="1" as="geometry">
            <Array as="points">
              <mxPoint x="90" y="213" />
              <mxPoint x="90" y="700" />
            </Array>
          </mxGeometry>
        </mxCell>
        <mxCell id="ZV7shRf-ksZKW6ysH2i3-33" style="edgeStyle=orthogonalEdgeStyle;rounded=0;orthogonalLoop=1;jettySize=auto;html=1;entryX=-0.004;entryY=0.178;entryDx=0;entryDy=0;entryPerimeter=0;endArrow=diamond;endFill=0;endSize=10;startSize=10;" edge="1" parent="1" source="FYcy1s9Q1wEInNr1CtbZ-14" target="ZV7shRf-ksZKW6ysH2i3-24">
          <mxGeometry relative="1" as="geometry">
            <Array as="points">
              <mxPoint x="370" y="441" />
              <mxPoint x="370" y="700" />
            </Array>
          </mxGeometry>
        </mxCell>
        <mxCell id="ZV7shRf-ksZKW6ysH2i3-34" style="edgeStyle=orthogonalEdgeStyle;rounded=0;orthogonalLoop=1;jettySize=auto;html=1;entryX=1.024;entryY=0.149;entryDx=0;entryDy=0;entryPerimeter=0;startArrow=diamond;startFill=0;endArrow=none;endFill=0;endSize=10;startSize=10;" edge="1" parent="1" source="ZV7shRf-ksZKW6ysH2i3-25" target="ZV7shRf-ksZKW6ysH2i3-28">
          <mxGeometry relative="1" as="geometry" />
        </mxCell>
        <mxCell id="ZV7shRf-ksZKW6ysH2i3-41" style="edgeStyle=orthogonalEdgeStyle;rounded=0;orthogonalLoop=1;jettySize=auto;html=1;entryX=0;entryY=0.5;entryDx=0;entryDy=0;startArrow=diamond;startFill=1;endArrow=none;endFill=0;endSize=10;startSize=10;" edge="1" parent="1" source="ZV7shRf-ksZKW6ysH2i3-37" target="ZV7shRf-ksZKW6ysH2i3-27">
          <mxGeometry relative="1" as="geometry" />
        </mxCell>
        <mxCell id="ZV7shRf-ksZKW6ysH2i3-37" value="&amp;lt;&amp;lt;PricingStrategy&amp;gt;&amp;gt;" style="swimlane;fontStyle=0;childLayout=stackLayout;horizontal=1;startSize=26;fillColor=none;horizontalStack=0;resizeParent=1;resizeParentMax=0;resizeLast=0;collapsible=1;marginBottom=0;whiteSpace=wrap;html=1;" vertex="1" parent="1">
          <mxGeometry x="450" y="870" width="160" height="52" as="geometry" />
        </mxCell>
        <mxCell id="ZV7shRf-ksZKW6ysH2i3-38" value="+ getPrice(): Long" style="text;strokeColor=none;fillColor=none;align=left;verticalAlign=top;spacingLeft=4;spacingRight=4;overflow=hidden;rotatable=0;points=[[0,0.5],[1,0.5]];portConstraint=eastwest;whiteSpace=wrap;html=1;" vertex="1" parent="ZV7shRf-ksZKW6ysH2i3-37">
          <mxGeometry y="26" width="160" height="26" as="geometry" />
        </mxCell>
        <mxCell id="ZV7shRf-ksZKW6ysH2i3-42" value="PricingStrategy1" style="swimlane;fontStyle=1;align=center;verticalAlign=top;childLayout=stackLayout;horizontal=1;startSize=26;horizontalStack=0;resizeParent=1;resizeParentMax=0;resizeLast=0;collapsible=1;marginBottom=0;whiteSpace=wrap;html=1;" vertex="1" parent="1">
          <mxGeometry x="334" y="970" width="160" height="94" as="geometry" />
        </mxCell>
        <mxCell id="ZV7shRf-ksZKW6ysH2i3-43" value="&lt;div&gt;- amount: Long&lt;br&gt;&lt;/div&gt;" style="text;strokeColor=none;fillColor=none;align=left;verticalAlign=top;spacingLeft=4;spacingRight=4;overflow=hidden;rotatable=0;points=[[0,0.5],[1,0.5]];portConstraint=eastwest;whiteSpace=wrap;html=1;" vertex="1" parent="ZV7shRf-ksZKW6ysH2i3-42">
          <mxGeometry y="26" width="160" height="34" as="geometry" />
        </mxCell>
        <mxCell id="ZV7shRf-ksZKW6ysH2i3-44" value="" style="line;strokeWidth=1;fillColor=none;align=left;verticalAlign=middle;spacingTop=-1;spacingLeft=3;spacingRight=3;rotatable=0;labelPosition=right;points=[];portConstraint=eastwest;strokeColor=inherit;" vertex="1" parent="ZV7shRf-ksZKW6ysH2i3-42">
          <mxGeometry y="60" width="160" height="8" as="geometry" />
        </mxCell>
        <mxCell id="ZV7shRf-ksZKW6ysH2i3-45" value="+ getPrice(): Long" style="text;strokeColor=none;fillColor=none;align=left;verticalAlign=top;spacingLeft=4;spacingRight=4;overflow=hidden;rotatable=0;points=[[0,0.5],[1,0.5]];portConstraint=eastwest;whiteSpace=wrap;html=1;" vertex="1" parent="ZV7shRf-ksZKW6ysH2i3-42">
          <mxGeometry y="68" width="160" height="26" as="geometry" />
        </mxCell>
        <mxCell id="ZV7shRf-ksZKW6ysH2i3-46" value="PricingStrategy2" style="swimlane;fontStyle=1;align=center;verticalAlign=top;childLayout=stackLayout;horizontal=1;startSize=26;horizontalStack=0;resizeParent=1;resizeParentMax=0;resizeLast=0;collapsible=1;marginBottom=0;whiteSpace=wrap;html=1;" vertex="1" parent="1">
          <mxGeometry x="640" y="970" width="160" height="94" as="geometry" />
        </mxCell>
        <mxCell id="ZV7shRf-ksZKW6ysH2i3-47" value="- amount: Long" style="text;strokeColor=none;fillColor=none;align=left;verticalAlign=top;spacingLeft=4;spacingRight=4;overflow=hidden;rotatable=0;points=[[0,0.5],[1,0.5]];portConstraint=eastwest;whiteSpace=wrap;html=1;" vertex="1" parent="ZV7shRf-ksZKW6ysH2i3-46">
          <mxGeometry y="26" width="160" height="34" as="geometry" />
        </mxCell>
        <mxCell id="ZV7shRf-ksZKW6ysH2i3-48" value="" style="line;strokeWidth=1;fillColor=none;align=left;verticalAlign=middle;spacingTop=-1;spacingLeft=3;spacingRight=3;rotatable=0;labelPosition=right;points=[];portConstraint=eastwest;strokeColor=inherit;" vertex="1" parent="ZV7shRf-ksZKW6ysH2i3-46">
          <mxGeometry y="60" width="160" height="8" as="geometry" />
        </mxCell>
        <mxCell id="ZV7shRf-ksZKW6ysH2i3-49" value="+ getPrice(): Long" style="text;strokeColor=none;fillColor=none;align=left;verticalAlign=top;spacingLeft=4;spacingRight=4;overflow=hidden;rotatable=0;points=[[0,0.5],[1,0.5]];portConstraint=eastwest;whiteSpace=wrap;html=1;" vertex="1" parent="ZV7shRf-ksZKW6ysH2i3-46">
          <mxGeometry y="68" width="160" height="26" as="geometry" />
        </mxCell>
        <mxCell id="ZV7shRf-ksZKW6ysH2i3-51" style="edgeStyle=orthogonalEdgeStyle;rounded=0;orthogonalLoop=1;jettySize=auto;html=1;entryX=0.829;entryY=1.022;entryDx=0;entryDy=0;entryPerimeter=0;endSize=10;" edge="1" parent="1" source="ZV7shRf-ksZKW6ysH2i3-46" target="ZV7shRf-ksZKW6ysH2i3-38">
          <mxGeometry relative="1" as="geometry" />
        </mxCell>
        <mxCell id="ZV7shRf-ksZKW6ysH2i3-53" style="edgeStyle=orthogonalEdgeStyle;rounded=0;orthogonalLoop=1;jettySize=auto;html=1;entryX=0.432;entryY=0.979;entryDx=0;entryDy=0;entryPerimeter=0;endSize=10;startSize=10;" edge="1" parent="1" source="ZV7shRf-ksZKW6ysH2i3-42" target="ZV7shRf-ksZKW6ysH2i3-38">
          <mxGeometry relative="1" as="geometry" />
        </mxCell>
        <mxCell id="ZV7shRf-ksZKW6ysH2i3-54" value="User" style="swimlane;fontStyle=1;align=center;verticalAlign=top;childLayout=stackLayout;horizontal=1;startSize=26;horizontalStack=0;resizeParent=1;resizeParentMax=0;resizeLast=0;collapsible=1;marginBottom=0;whiteSpace=wrap;html=1;" vertex="1" parent="1">
          <mxGeometry x="640" y="720" width="160" height="124" as="geometry" />
        </mxCell>
        <mxCell id="ZV7shRf-ksZKW6ysH2i3-55" value="- id: Integer&lt;div&gt;- name: String&lt;/div&gt;&lt;div&gt;- phone: Long&lt;/div&gt;&lt;div&gt;- email: String&lt;/div&gt;" style="text;strokeColor=none;fillColor=none;align=left;verticalAlign=top;spacingLeft=4;spacingRight=4;overflow=hidden;rotatable=0;points=[[0,0.5],[1,0.5]];portConstraint=eastwest;whiteSpace=wrap;html=1;" vertex="1" parent="ZV7shRf-ksZKW6ysH2i3-54">
          <mxGeometry y="26" width="160" height="64" as="geometry" />
        </mxCell>
        <mxCell id="ZV7shRf-ksZKW6ysH2i3-56" value="" style="line;strokeWidth=1;fillColor=none;align=left;verticalAlign=middle;spacingTop=-1;spacingLeft=3;spacingRight=3;rotatable=0;labelPosition=right;points=[];portConstraint=eastwest;strokeColor=inherit;" vertex="1" parent="ZV7shRf-ksZKW6ysH2i3-54">
          <mxGeometry y="90" width="160" height="8" as="geometry" />
        </mxCell>
        <mxCell id="ZV7shRf-ksZKW6ysH2i3-57" value="&amp;nbsp;" style="text;strokeColor=none;fillColor=none;align=left;verticalAlign=top;spacingLeft=4;spacingRight=4;overflow=hidden;rotatable=0;points=[[0,0.5],[1,0.5]];portConstraint=eastwest;whiteSpace=wrap;html=1;" vertex="1" parent="ZV7shRf-ksZKW6ysH2i3-54">
          <mxGeometry y="98" width="160" height="26" as="geometry" />
        </mxCell>
        <mxCell id="ZV7shRf-ksZKW6ysH2i3-58" style="edgeStyle=orthogonalEdgeStyle;rounded=0;orthogonalLoop=1;jettySize=auto;html=1;entryX=1;entryY=0.088;entryDx=0;entryDy=0;entryPerimeter=0;startArrow=diamond;startFill=0;endSize=10;startSize=10;endArrow=none;endFill=0;" edge="1" parent="1" source="ZV7shRf-ksZKW6ysH2i3-16" target="ZV7shRf-ksZKW6ysH2i3-54">
          <mxGeometry relative="1" as="geometry" />
        </mxCell>
        <mxCell id="ZV7shRf-ksZKW6ysH2i3-59" value="&lt;i&gt;Transaction&lt;/i&gt;" style="swimlane;fontStyle=1;align=center;verticalAlign=top;childLayout=stackLayout;horizontal=1;startSize=26;horizontalStack=0;resizeParent=1;resizeParentMax=0;resizeLast=0;collapsible=1;marginBottom=0;whiteSpace=wrap;html=1;" vertex="1" parent="1">
          <mxGeometry x="100" y="844" width="160" height="104" as="geometry" />
        </mxCell>
        <mxCell id="ZV7shRf-ksZKW6ysH2i3-60" value="- id: Integer&lt;div&gt;- name: String&lt;/div&gt;" style="text;strokeColor=none;fillColor=none;align=left;verticalAlign=top;spacingLeft=4;spacingRight=4;overflow=hidden;rotatable=0;points=[[0,0.5],[1,0.5]];portConstraint=eastwest;whiteSpace=wrap;html=1;" vertex="1" parent="ZV7shRf-ksZKW6ysH2i3-59">
          <mxGeometry y="26" width="160" height="44" as="geometry" />
        </mxCell>
        <mxCell id="ZV7shRf-ksZKW6ysH2i3-61" value="" style="line;strokeWidth=1;fillColor=none;align=left;verticalAlign=middle;spacingTop=-1;spacingLeft=3;spacingRight=3;rotatable=0;labelPosition=right;points=[];portConstraint=eastwest;strokeColor=inherit;" vertex="1" parent="ZV7shRf-ksZKW6ysH2i3-59">
          <mxGeometry y="70" width="160" height="8" as="geometry" />
        </mxCell>
        <mxCell id="ZV7shRf-ksZKW6ysH2i3-62" value="&amp;nbsp;" style="text;strokeColor=none;fillColor=none;align=left;verticalAlign=top;spacingLeft=4;spacingRight=4;overflow=hidden;rotatable=0;points=[[0,0.5],[1,0.5]];portConstraint=eastwest;whiteSpace=wrap;html=1;" vertex="1" parent="ZV7shRf-ksZKW6ysH2i3-59">
          <mxGeometry y="78" width="160" height="26" as="geometry" />
        </mxCell>
        <mxCell id="ZV7shRf-ksZKW6ysH2i3-63" value="RazorPay" style="swimlane;fontStyle=1;align=center;verticalAlign=top;childLayout=stackLayout;horizontal=1;startSize=26;horizontalStack=0;resizeParent=1;resizeParentMax=0;resizeLast=0;collapsible=1;marginBottom=0;whiteSpace=wrap;html=1;" vertex="1" parent="1">
          <mxGeometry x="90" y="1020" width="160" height="104" as="geometry" />
        </mxCell>
        <mxCell id="ZV7shRf-ksZKW6ysH2i3-64" value="- amount: Long&lt;div&gt;- time: DateTime&lt;/div&gt;" style="text;strokeColor=none;fillColor=none;align=left;verticalAlign=top;spacingLeft=4;spacingRight=4;overflow=hidden;rotatable=0;points=[[0,0.5],[1,0.5]];portConstraint=eastwest;whiteSpace=wrap;html=1;" vertex="1" parent="ZV7shRf-ksZKW6ysH2i3-63">
          <mxGeometry y="26" width="160" height="44" as="geometry" />
        </mxCell>
        <mxCell id="ZV7shRf-ksZKW6ysH2i3-65" value="" style="line;strokeWidth=1;fillColor=none;align=left;verticalAlign=middle;spacingTop=-1;spacingLeft=3;spacingRight=3;rotatable=0;labelPosition=right;points=[];portConstraint=eastwest;strokeColor=inherit;" vertex="1" parent="ZV7shRf-ksZKW6ysH2i3-63">
          <mxGeometry y="70" width="160" height="8" as="geometry" />
        </mxCell>
        <mxCell id="ZV7shRf-ksZKW6ysH2i3-66" value="&amp;nbsp;" style="text;strokeColor=none;fillColor=none;align=left;verticalAlign=top;spacingLeft=4;spacingRight=4;overflow=hidden;rotatable=0;points=[[0,0.5],[1,0.5]];portConstraint=eastwest;whiteSpace=wrap;html=1;" vertex="1" parent="ZV7shRf-ksZKW6ysH2i3-63">
          <mxGeometry y="78" width="160" height="26" as="geometry" />
        </mxCell>
        <mxCell id="ZV7shRf-ksZKW6ysH2i3-67" style="edgeStyle=orthogonalEdgeStyle;rounded=0;orthogonalLoop=1;jettySize=auto;html=1;entryX=0.565;entryY=1.005;entryDx=0;entryDy=0;entryPerimeter=0;endSize=10;startSize=10;" edge="1" parent="1" source="ZV7shRf-ksZKW6ysH2i3-63" target="ZV7shRf-ksZKW6ysH2i3-62">
          <mxGeometry relative="1" as="geometry" />
        </mxCell>
        <mxCell id="ZV7shRf-ksZKW6ysH2i3-68" style="edgeStyle=orthogonalEdgeStyle;rounded=0;orthogonalLoop=1;jettySize=auto;html=1;entryX=0.003;entryY=0.136;entryDx=0;entryDy=0;entryPerimeter=0;startArrow=diamond;startFill=1;endArrow=none;endFill=0;endSize=10;startSize=10;" edge="1" parent="1" source="ZV7shRf-ksZKW6ysH2i3-12" target="ZV7shRf-ksZKW6ysH2i3-59">
          <mxGeometry relative="1" as="geometry">
            <Array as="points">
              <mxPoint x="50" y="610" />
              <mxPoint x="50" y="858" />
            </Array>
          </mxGeometry>
        </mxCell>
      </root>
    </mxGraphModel>
  </diagram>
</mxfile>
